<?xml version="1.0" encoding="utf-8"?>
<!-- Generator: Adobe Illustrator 24.2.0, SVG Export Plug-In . SVG Version: 6.00 Build 0)  -->
<svg version="1.1" id="Layer_1" xmlns="http://www.w3.org/2000/svg" xmlns:xlink="http://www.w3.org/1999/xlink" x="0px" y="0px"
	 viewBox="0 0 252 180" style="enable-background:new 0 0 252 180;" xml:space="preserve">
<style type="text/css">
	.st0{fill:#BE1E2D;}
	.st1{fill:none;stroke:#414042;stroke-miterlimit:10;}
	.st2{fill:#F7941D;}
	.st3{fill:none;stroke:#2B3C90;stroke-width:1.25;stroke-miterlimit:3.8;}
	.st4{fill:#2B3C90;}
	.st5{clip-path:url(#SVGID_2_);}
	.st6{clip-path:url(#SVGID_4_);}
</style>
<g>
	<g>
		<g>
			<rect x="6.83" y="101.27" class="st0" width="16.94" height="16.94"/>
			<rect x="25.46" y="101.27" class="st0" width="16.94" height="16.94"/>
			<rect x="44.1" y="101.27" class="st0" width="16.94" height="16.94"/>
			<rect x="6.83" y="82.64" class="st0" width="16.94" height="16.94"/>
			<rect x="6.83" y="64" class="st0" width="16.94" height="16.94"/>
			<rect x="25.46" y="82.64" class="st0" width="16.94" height="16.94"/>
			<rect x="25.46" y="64" class="st0" width="16.94" height="16.94"/>
			<rect x="44.1" y="82.64" class="st0" width="16.94" height="16.94"/>
			<rect x="44.1" y="64" class="st0" width="16.94" height="16.94"/>
			<polyline class="st1" points="6.17,62.31 4.48,62.31 4.48,119.9 6.17,119.9 			"/>
			<polyline class="st1" points="61.69,119.9 63.39,119.9 63.39,62.3 61.69,62.3 			"/>
		</g>
		<g>
			<polygon class="st2" points="101.77,101.27 115.84,115.34 115.84,101.27 			"/>
			<rect x="117.53" y="101.27" class="st0" width="16.94" height="16.94"/>
			<rect x="136.16" y="101.27" class="st0" width="16.94" height="16.94"/>
			<rect x="98.9" y="82.64" class="st0" width="16.94" height="16.94"/>
			<rect x="117.53" y="82.64" class="st0" width="16.94" height="16.94"/>
			<g>
				<polygon class="st2" points="136.16,66.87 150.24,80.94 136.16,80.94 				"/>
				<rect x="98.9" y="64" class="st0" width="16.94" height="16.94"/>
				<rect x="117.53" y="64" class="st0" width="16.94" height="16.94"/>
			</g>
			<rect x="136.16" y="82.64" class="st0" width="16.94" height="16.94"/>
			<polyline class="st1" points="98.24,62.31 96.54,62.31 96.54,119.9 98.24,119.9 			"/>
			<polyline class="st1" points="153.76,119.9 155.46,119.9 155.46,62.3 153.76,62.3 			"/>
		</g>
		<g>
			<rect x="190.96" y="82.64" class="st0" width="16.94" height="16.94"/>
			<rect x="190.96" y="64" class="st0" width="16.94" height="16.94"/>
			<rect x="209.6" y="101.27" class="st0" width="16.94" height="16.94"/>
			<rect x="209.6" y="82.64" class="st0" width="16.94" height="16.94"/>
			<rect x="209.6" y="64" class="st0" width="16.94" height="16.94"/>
			<rect x="228.23" y="101.27" class="st0" width="16.94" height="16.94"/>
			<rect x="228.23" y="82.64" class="st0" width="16.94" height="16.94"/>
			<polyline class="st1" points="190.3,62.31 188.61,62.31 188.61,119.9 190.3,119.9 			"/>
			<polyline class="st1" points="245.83,119.9 247.52,119.9 247.52,62.3 245.83,62.3 			"/>
		</g>
	</g>
	<g>
		<g>
			<polyline points="34.61,141.93 33.02,143.55 33.23,143.78 34.61,142.54 35.98,143.78 36.18,143.55 34.61,141.93 			"/>
			<path d="M37.55,146.05c0.09-0.43,0.12-0.55,1-0.55c0.3,0,0.39,0,0.39-0.23c0-0.14-0.12-0.14-0.16-0.14
				c-0.34,0-1.18,0.05-1.53,0.05c-0.34,0-1.18-0.05-1.52-0.05c-0.09,0-0.23,0-0.23,0.25c0,0.11,0.11,0.11,0.32,0.11
				c0.02,0,0.25,0,0.45,0.02c0.23,0.02,0.32,0.05,0.32,0.21c0,0.05,0,0.07-0.04,0.23l-0.71,2.89h-3.62l0.7-2.8
				c0.09-0.43,0.14-0.55,0.98-0.55c0.32,0,0.41,0,0.41-0.23c0-0.14-0.14-0.14-0.16-0.14c-0.34,0-1.18,0.05-1.52,0.05
				s-1.18-0.05-1.53-0.05c-0.11,0-0.23,0-0.23,0.25c0,0.11,0.09,0.11,0.32,0.11c0.02,0,0.25,0,0.46,0.02
				c0.23,0.02,0.32,0.05,0.32,0.21c0,0.05,0,0.07-0.04,0.23l-1.59,6.37c-0.12,0.45-0.14,0.57-1.07,0.57c-0.23,0-0.34,0-0.34,0.23
				c0,0.14,0.16,0.14,0.18,0.14c0.32,0,1.18-0.05,1.5-0.05c0.25,0,0.52,0.02,0.77,0.02c0.25,0,0.52,0.02,0.77,0.02
				c0.09,0,0.23,0,0.23-0.25c0-0.11-0.12-0.11-0.34-0.11c-0.43,0-0.77,0-0.77-0.23c0-0.07,0.02-0.14,0.05-0.21l0.8-3.25h3.64
				c-0.5,1.98-0.77,3.12-0.82,3.28c-0.11,0.39-0.34,0.41-1.09,0.41c-0.18,0-0.27,0-0.27,0.23c0,0.14,0.14,0.14,0.16,0.14
				c0.34,0,1.18-0.05,1.5-0.05c0.25,0,0.52,0.02,0.77,0.02c0.25,0,0.52,0.02,0.77,0.02c0.09,0,0.23,0,0.23-0.25
				c0-0.11-0.09-0.11-0.32-0.11c-0.45,0-0.77,0-0.77-0.23c0-0.07,0.02-0.14,0.02-0.21L37.55,146.05"/>
		</g>
		<g>
			<g>
				<line class="st3" x1="42.93" y1="149.35" x2="66.55" y2="149.35"/>
				<g>
					<polygon class="st4" points="64.8,151.66 65.78,149.35 64.8,147.03 70.29,149.35 					"/>
				</g>
			</g>
		</g>
		<g>
			<g>
				<line class="st3" x1="180.34" y1="149.35" x2="195.33" y2="149.35"/>
				<g>
					<polygon class="st4" points="193.57,151.66 194.55,149.35 193.57,147.03 199.06,149.35 					"/>
				</g>
			</g>
		</g>
		<g>
			<defs>
				<rect id="SVGID_1_" x="74.27" y="142.06" width="103.46" height="14.28"/>
			</defs>
			<clipPath id="SVGID_2_">
				<use xlink:href="#SVGID_1_"  style="overflow:visible;"/>
			</clipPath>
			<rect x="77.98" y="143.3" class="st5" width="4.25" height="0.37"/>
			<path class="st5" d="M83.09,146.07c0.1-0.42,0.13-0.54,0.98-0.54c0.3,0,0.41,0,0.41-0.24c0-0.13-0.13-0.13-0.17-0.13
				c-0.33,0-1.18,0.04-1.51,0.04c-0.34,0-1.17-0.04-1.51-0.04c-0.09,0-0.22,0-0.22,0.24c0,0.13,0.1,0.13,0.33,0.13
				c0.03,0,0.25,0,0.45,0.03c0.21,0.01,0.32,0.03,0.32,0.18c0,0.04-0.01,0.07-0.04,0.22l-0.71,2.86h-3.58l0.69-2.75
				c0.1-0.42,0.13-0.54,0.98-0.54c0.3,0,0.39,0,0.39-0.24c0-0.13-0.13-0.13-0.16-0.13c-0.33,0-1.18,0.04-1.51,0.04
				c-0.34,0-1.17-0.04-1.51-0.04c-0.1,0-0.22,0-0.22,0.24c0,0.13,0.1,0.13,0.33,0.13c0.01,0,0.24,0,0.45,0.03
				c0.21,0.01,0.31,0.03,0.31,0.18c0,0.04-0.01,0.08-0.05,0.22l-1.57,6.31c-0.12,0.46-0.13,0.55-1.06,0.55c-0.21,0-0.31,0-0.31,0.24
				c0,0.12,0.13,0.12,0.16,0.12c0.33,0,1.17-0.03,1.5-0.03c0.25,0,0.5,0.01,0.75,0.01c0.26,0,0.52,0.01,0.76,0.01
				c0.11,0,0.24,0,0.24-0.22c0-0.13-0.11-0.13-0.33-0.13c-0.43,0-0.76,0-0.76-0.21c0-0.08,0.03-0.13,0.04-0.21l0.8-3.21h3.58
				c-0.5,1.95-0.77,3.07-0.81,3.24c-0.12,0.38-0.34,0.39-1.08,0.39c-0.17,0-0.28,0-0.28,0.24c0,0.12,0.14,0.12,0.16,0.12
				c0.34,0,1.17-0.03,1.5-0.03c0.25,0,0.51,0.01,0.75,0.01c0.26,0,0.52,0.01,0.77,0.01c0.09,0,0.24,0,0.24-0.24
				c0-0.12-0.1-0.12-0.33-0.12c-0.45,0-0.77,0-0.77-0.22c0-0.07,0.03-0.12,0.04-0.2L83.09,146.07"/>
			<path class="st5" d="M88.75,156.01c0-0.04,0-0.07-0.2-0.26c-1.47-1.48-1.85-3.7-1.85-5.5c0-2.05,0.45-4.09,1.89-5.56
				c0.16-0.13,0.16-0.16,0.16-0.2c0-0.08-0.05-0.12-0.12-0.12c-0.12,0-1.18,0.8-1.86,2.3c-0.6,1.29-0.75,2.6-0.75,3.58
				c0,0.92,0.13,2.34,0.77,3.66c0.71,1.44,1.72,2.2,1.84,2.2C88.7,156.12,88.75,156.09,88.75,156.01"/>
			<path class="st5" d="M94.04,148.8c-0.33,0.01-0.56,0.26-0.56,0.52c0,0.17,0.1,0.34,0.37,0.34c0.25,0,0.54-0.2,0.54-0.66
				c0-0.52-0.51-1.01-1.4-1.01c-1.55,0-1.98,1.19-1.98,1.72c0,0.91,0.87,1.09,1.21,1.15c0.62,0.12,1.22,0.25,1.22,0.89
				c0,0.31-0.26,1.3-1.68,1.3c-0.16,0-1.06,0-1.34-0.63c0.45,0.07,0.73-0.29,0.73-0.62c0-0.28-0.18-0.41-0.43-0.41
				c-0.3,0-0.66,0.24-0.66,0.77c0,0.67,0.67,1.13,1.68,1.13c1.9,0,2.36-1.42,2.36-1.94c0-0.42-0.22-0.72-0.37-0.87
				c-0.31-0.33-0.66-0.38-1.17-0.49c-0.42-0.09-0.89-0.18-0.89-0.71c0-0.34,0.28-1.06,1.31-1.06
				C93.28,148.25,93.86,148.34,94.04,148.8"/>
			<path class="st5" d="M98.36,150.25c0-0.92-0.13-2.33-0.77-3.67c-0.71-1.44-1.72-2.2-1.84-2.2c-0.07,0-0.12,0.05-0.12,0.12
				c0,0.04,0,0.07,0.22,0.27c1.15,1.16,1.82,3.03,1.82,5.48c0,2.01-0.43,4.07-1.89,5.55c-0.16,0.14-0.16,0.17-0.16,0.21
				c0,0.07,0.05,0.1,0.12,0.1c0.12,0,1.18-0.79,1.88-2.28C98.21,152.54,98.36,151.24,98.36,150.25"/>
			<path class="st5" d="M110.87,151.63c0.17,0,0.39,0,0.39-0.24c0-0.24-0.22-0.24-0.39-0.24h-7.02c-0.17,0-0.39,0-0.39,0.24
				c0,0.24,0.22,0.24,0.38,0.24H110.87 M110.87,149.35c0.17,0,0.39,0,0.39-0.24c0-0.24-0.22-0.24-0.39-0.24h-7.03
				c-0.16,0-0.38,0-0.38,0.24c0,0.24,0.22,0.24,0.39,0.24H110.87z"/>
			<polyline class="st5" points="120.21,142.08 118.64,143.68 118.86,143.89 120.21,142.69 121.56,143.89 121.78,143.68 
				120.22,142.08 			"/>
			<path class="st5" d="M122.72,146.4c0.12-0.49,0.33-0.83,1.27-0.87c0.05,0,0.2-0.01,0.2-0.24c0-0.01,0-0.13-0.16-0.13
				c-0.38,0-0.79,0.04-1.19,0.04c-0.39,0-0.83-0.04-1.22-0.04c-0.07,0-0.21,0-0.21,0.24c0,0.13,0.12,0.13,0.21,0.13
				c0.67,0.01,0.8,0.25,0.8,0.51c0,0.04-0.03,0.21-0.04,0.25l-1.05,4.2c-0.41,1.57-1.76,2.6-2.93,2.6c-0.8,0-1.44-0.52-1.44-1.53
				c0-0.03,0-0.39,0.13-0.92l1.14-4.57c0.1-0.42,0.13-0.54,0.98-0.54c0.32,0,0.41,0,0.41-0.24c0-0.13-0.13-0.13-0.17-0.13
				c-0.33,0-1.17,0.04-1.5,0.04c-0.34,0-1.18-0.04-1.52-0.04c-0.09,0-0.22,0-0.22,0.24c0,0.13,0.1,0.13,0.33,0.13
				c0.03,0,0.25,0,0.45,0.03c0.21,0.01,0.31,0.03,0.31,0.18c0,0.07-0.12,0.56-0.2,0.84l-0.25,1.02c-0.12,0.46-0.68,2.68-0.72,2.9
				c-0.08,0.33-0.08,0.51-0.08,0.68c0,1.44,1.06,2.26,2.3,2.26c1.48,0,2.94-1.32,3.32-2.87L122.72,146.4"/>
			<path class="st5" d="M126.83,144.9c0.13,0.01,0.21,0.03,0.46,0.09c0.26,0.07,0.46,0.12,0.62,0.12c0.33,0,0.37-0.25,0.37-0.33
				c0-0.07-0.04-0.31-0.37-0.31c-0.16,0-0.35,0.05-0.62,0.12c-0.25,0.07-0.33,0.08-0.46,0.09c0.03-0.29,0.08-0.63,0.12-0.89
				c0.04-0.17,0.11-0.59,0.11-0.88c0-0.25-0.11-0.38-0.32-0.38c-0.17,0-0.33,0.09-0.33,0.38c0,0.27,0.07,0.69,0.12,0.97
				c0.01,0.09,0.09,0.5,0.1,0.8c-0.12-0.01-0.21-0.03-0.46-0.09c-0.26-0.07-0.46-0.12-0.62-0.12c-0.33,0-0.35,0.25-0.35,0.31
				c0,0.08,0.03,0.33,0.35,0.33c0.16,0,0.35-0.05,0.62-0.12c0.25-0.07,0.34-0.08,0.46-0.09c-0.01,0.2-0.07,0.47-0.12,0.64
				c-0.11,0.51-0.11,0.56-0.11,1c0,1.6,0.16,3.31,0.18,3.46c0.01,0.08,0.03,0.13,0.14,0.13c0.12,0,0.13-0.05,0.14-0.17
				c0-0.01,0.07-0.73,0.1-1.23c0.04-0.73,0.07-1.46,0.07-2.19c0-0.43,0-0.48-0.11-1.01C126.93,145.44,126.86,145.1,126.83,144.9"/>
			<path class="st5" d="M133.38,156.01c0-0.04,0-0.07-0.2-0.26c-1.47-1.48-1.84-3.7-1.84-5.5c0-2.05,0.45-4.09,1.89-5.56
				c0.15-0.13,0.15-0.16,0.15-0.2c0-0.08-0.04-0.12-0.12-0.12c-0.12,0-1.17,0.8-1.86,2.3c-0.6,1.29-0.73,2.6-0.73,3.58
				c0,0.92,0.12,2.34,0.77,3.66c0.69,1.44,1.7,2.2,1.82,2.2C133.34,156.12,133.38,156.09,133.38,156.01"/>
			<path class="st5" d="M138.67,148.8c-0.33,0.01-0.57,0.26-0.57,0.52c0,0.17,0.1,0.34,0.37,0.34c0.26,0,0.54-0.2,0.54-0.66
				c0-0.52-0.5-1.01-1.39-1.01c-1.55,0-1.99,1.19-1.99,1.72c0,0.91,0.88,1.09,1.22,1.15c0.6,0.12,1.22,0.25,1.22,0.89
				c0,0.31-0.27,1.3-1.68,1.3c-0.17,0-1.08,0-1.34-0.63c0.45,0.07,0.74-0.29,0.74-0.62c0-0.28-0.18-0.41-0.43-0.41
				c-0.3,0-0.66,0.24-0.66,0.77c0,0.67,0.67,1.13,1.68,1.13c1.9,0,2.36-1.42,2.36-1.94c0-0.42-0.22-0.72-0.37-0.87
				c-0.31-0.33-0.65-0.38-1.18-0.49c-0.42-0.09-0.89-0.18-0.89-0.71c0-0.34,0.29-1.06,1.32-1.06
				C137.91,148.25,138.5,148.34,138.67,148.8"/>
			<path class="st5" d="M143,150.25c0-0.92-0.13-2.33-0.77-3.67c-0.71-1.44-1.72-2.2-1.84-2.2c-0.08,0-0.12,0.05-0.12,0.12
				c0,0.04,0,0.07,0.22,0.27c1.16,1.16,1.82,3.03,1.82,5.48c0,2.01-0.43,4.07-1.89,5.55c-0.16,0.14-0.16,0.17-0.16,0.21
				c0,0.07,0.04,0.1,0.12,0.1c0.12,0,1.17-0.79,1.86-2.28C142.85,152.54,143,151.24,143,150.25"/>
			<polyline class="st5" points="150.17,142.08 148.6,143.68 148.81,143.89 150.17,142.69 151.52,143.89 151.73,143.68 
				150.17,142.08 			"/>
			<path class="st5" d="M153.14,146.07c0.11-0.42,0.13-0.54,0.98-0.54c0.31,0,0.41,0,0.41-0.24c0-0.13-0.13-0.13-0.17-0.13
				c-0.33,0-1.17,0.04-1.5,0.04c-0.34,0-1.18-0.04-1.52-0.04c-0.09,0-0.22,0-0.22,0.24c0,0.13,0.1,0.13,0.33,0.13
				c0.03,0,0.25,0,0.45,0.03c0.21,0.01,0.31,0.03,0.31,0.18c0,0.04,0,0.07-0.04,0.22l-0.71,2.86h-3.58l0.69-2.75
				c0.1-0.42,0.14-0.54,0.98-0.54c0.3,0,0.41,0,0.41-0.24c0-0.13-0.13-0.13-0.17-0.13c-0.33,0-1.17,0.04-1.51,0.04
				s-1.17-0.04-1.51-0.04c-0.09,0-0.22,0-0.22,0.24c0,0.13,0.1,0.13,0.33,0.13c0.03,0,0.25,0,0.45,0.03
				c0.21,0.01,0.31,0.03,0.31,0.18c0,0.04-0.01,0.08-0.04,0.22l-1.57,6.31c-0.12,0.46-0.14,0.55-1.08,0.55c-0.21,0-0.31,0-0.31,0.24
				c0,0.12,0.14,0.12,0.17,0.12c0.33,0,1.16-0.03,1.48-0.03c0.25,0,0.51,0.01,0.76,0.01c0.25,0,0.51,0.01,0.76,0.01
				c0.09,0,0.23,0,0.23-0.22c0-0.13-0.1-0.13-0.33-0.13c-0.45,0-0.77,0-0.77-0.21c0-0.08,0.03-0.13,0.04-0.21l0.8-3.21h3.58
				c-0.5,1.95-0.76,3.07-0.81,3.24c-0.12,0.38-0.34,0.39-1.06,0.39c-0.18,0-0.29,0-0.29,0.24c0,0.12,0.14,0.12,0.17,0.12
				c0.33,0,1.17-0.03,1.5-0.03c0.23,0,0.5,0.01,0.75,0.01c0.26,0,0.51,0.01,0.76,0.01c0.09,0,0.24,0,0.24-0.24
				c0-0.12-0.11-0.12-0.33-0.12c-0.43,0-0.76,0-0.76-0.22c0-0.07,0.01-0.12,0.02-0.2L153.14,146.07"/>
			<polyline class="st5" points="159.88,142.08 158.31,143.68 158.51,143.89 159.88,142.69 161.23,143.89 161.44,143.68 
				159.88,142.08 			"/>
			<path class="st5" d="M162.37,146.4c0.12-0.49,0.33-0.83,1.27-0.87c0.07,0,0.2-0.01,0.2-0.24c0-0.01,0-0.13-0.14-0.13
				c-0.39,0-0.8,0.04-1.21,0.04c-0.39,0-0.83-0.04-1.22-0.04c-0.07,0-0.21,0-0.21,0.24c0,0.13,0.12,0.13,0.21,0.13
				c0.67,0.01,0.8,0.25,0.8,0.51c0,0.04-0.03,0.21-0.04,0.25l-1.05,4.2c-0.41,1.57-1.76,2.6-2.93,2.6c-0.8,0-1.43-0.52-1.43-1.53
				c0-0.03,0-0.39,0.12-0.92l1.14-4.57c0.11-0.42,0.13-0.54,1-0.54c0.3,0,0.39,0,0.39-0.24c0-0.13-0.13-0.13-0.17-0.13
				c-0.33,0-1.17,0.04-1.5,0.04c-0.34,0-1.18-0.04-1.52-0.04c-0.09,0-0.22,0-0.22,0.24c0,0.13,0.1,0.13,0.33,0.13
				c0.03,0,0.25,0,0.45,0.03c0.22,0.01,0.33,0.03,0.33,0.18c0,0.07-0.13,0.56-0.21,0.84l-0.25,1.02c-0.1,0.46-0.67,2.68-0.72,2.9
				c-0.08,0.33-0.08,0.51-0.08,0.68c0,1.44,1.06,2.26,2.3,2.26c1.48,0,2.94-1.32,3.33-2.87L162.37,146.4"/>
			<path class="st5" d="M168.12,156.01c0-0.04,0-0.07-0.2-0.26c-1.47-1.48-1.85-3.7-1.85-5.5c0-2.05,0.45-4.09,1.89-5.56
				c0.16-0.13,0.16-0.16,0.16-0.2c0-0.08-0.05-0.12-0.12-0.12c-0.12,0-1.18,0.8-1.86,2.3c-0.6,1.29-0.75,2.6-0.75,3.58
				c0,0.92,0.13,2.34,0.77,3.66c0.71,1.44,1.72,2.2,1.84,2.2C168.06,156.12,168.12,156.09,168.12,156.01"/>
			<path class="st5" d="M173.4,148.8c-0.33,0.01-0.56,0.26-0.56,0.52c0,0.17,0.1,0.34,0.37,0.34c0.25,0,0.54-0.2,0.54-0.66
				c0-0.52-0.51-1.01-1.4-1.01c-1.55,0-1.98,1.19-1.98,1.72c0,0.91,0.86,1.09,1.21,1.15c0.62,0.12,1.22,0.25,1.22,0.89
				c0,0.31-0.26,1.3-1.68,1.3c-0.16,0-1.06,0-1.34-0.63c0.45,0.07,0.75-0.29,0.75-0.62c0-0.28-0.2-0.41-0.43-0.41
				c-0.31,0-0.67,0.24-0.67,0.77c0,0.67,0.67,1.13,1.68,1.13c1.9,0,2.36-1.42,2.36-1.94c0-0.42-0.22-0.72-0.35-0.87
				c-0.33-0.33-0.65-0.38-1.18-0.49c-0.42-0.09-0.89-0.18-0.89-0.71c0-0.34,0.29-1.06,1.31-1.06
				C172.64,148.25,173.22,148.34,173.4,148.8"/>
			<path class="st5" d="M177.72,150.25c0-0.92-0.13-2.33-0.77-3.67c-0.71-1.44-1.72-2.2-1.84-2.2c-0.07,0-0.11,0.05-0.11,0.12
				c0,0.04,0,0.07,0.22,0.27c1.14,1.16,1.81,3.03,1.81,5.48c0,2.01-0.43,4.07-1.89,5.55c-0.15,0.14-0.15,0.17-0.15,0.21
				c0,0.07,0.04,0.1,0.12,0.1c0.1,0,1.17-0.79,1.86-2.28C177.59,152.54,177.72,151.24,177.72,150.25"/>
		</g>
		<g>
			<defs>
				<rect id="SVGID_3_" x="201.67" y="142.8" width="32.8" height="14.29"/>
			</defs>
			<clipPath id="SVGID_4_">
				<use xlink:href="#SVGID_3_"  style="overflow:visible;"/>
			</clipPath>
			<rect x="205.55" y="142.87" class="st6" width="4.55" height="0.39"/>
			<path class="st6" d="M211.02,145.84c0.11-0.45,0.14-0.58,1.07-0.58c0.32,0,0.42,0,0.42-0.25c0-0.14-0.14-0.14-0.18-0.14
				c-0.35,0-1.25,0.04-1.61,0.04c-0.37,0-1.27-0.04-1.63-0.04c-0.1,0-0.24,0-0.24,0.25c0,0.14,0.11,0.14,0.35,0.14
				c0.03,0,0.27,0,0.48,0.03c0.22,0.01,0.35,0.03,0.35,0.2c0,0.04-0.01,0.07-0.06,0.24l-0.76,3.07h-3.85l0.75-2.96
				c0.11-0.45,0.16-0.58,1.06-0.58c0.34,0,0.44,0,0.44-0.25c0-0.14-0.14-0.14-0.18-0.14c-0.35,0-1.25,0.04-1.61,0.04
				c-0.37,0-1.27-0.04-1.63-0.04c-0.1,0-0.24,0-0.24,0.25c0,0.14,0.11,0.14,0.35,0.14c0.03,0,0.27,0,0.48,0.03
				c0.23,0.01,0.34,0.03,0.34,0.2c0,0.04-0.01,0.08-0.04,0.24l-1.69,6.78c-0.13,0.49-0.16,0.59-1.16,0.59c-0.23,0-0.34,0-0.34,0.25
				c0,0.13,0.16,0.13,0.18,0.13c0.35,0,1.24-0.03,1.59-0.03c0.27,0,0.55,0.01,0.82,0.01c0.27,0,0.55,0.01,0.82,0.01
				c0.1,0,0.25,0,0.25-0.24c0-0.14-0.11-0.14-0.35-0.14c-0.46,0-0.82,0-0.82-0.24c0-0.07,0.01-0.13,0.03-0.21l0.86-3.45h3.85
				c-0.52,2.1-0.82,3.3-0.87,3.48c-0.11,0.41-0.37,0.42-1.14,0.42c-0.18,0-0.31,0-0.31,0.25c0,0.13,0.16,0.13,0.18,0.13
				c0.35,0,1.25-0.03,1.61-0.03c0.25,0,0.54,0.01,0.8,0.01c0.28,0,0.55,0.01,0.82,0.01c0.1,0,0.25,0,0.25-0.25
				c0-0.13-0.11-0.13-0.35-0.13c-0.46,0-0.82,0-0.82-0.24c0-0.07,0.03-0.13,0.04-0.21L211.02,145.84"/>
			<path class="st6" d="M217.11,156.52c0-0.04,0-0.07-0.21-0.28c-1.58-1.59-1.97-3.97-1.97-5.9c0-2.2,0.48-4.4,2.03-5.97
				c0.16-0.14,0.16-0.17,0.16-0.21c0-0.08-0.04-0.13-0.13-0.13c-0.13,0-1.25,0.86-2,2.47c-0.65,1.38-0.79,2.79-0.79,3.85
				c0,0.99,0.13,2.51,0.83,3.93c0.75,1.55,1.83,2.37,1.96,2.37c0.08,0,0.13-0.03,0.13-0.13"/>
			<path class="st6" d="M223.73,151.04c-0.52,0.9-1.45,2.18-2.89,2.18c-1.34,0-2.01-1.31-2.01-2.45c0-1.24,0.84-2.25,1.96-2.25
				c0.73,0,1.3,0.52,1.56,0.79c0.31,0.34,0.61,0.73,1.37,1.73 M224.59,150.49c0.52-0.9,1.45-2.17,2.87-2.17
				c1.34,0,2.03,1.31,2.03,2.44c0,1.24-0.85,2.25-1.96,2.25c-0.73,0-1.3-0.52-1.56-0.79C225.66,151.89,225.36,151.49,224.59,150.49z
				 M224.26,150.07c-0.68-0.86-0.83-1.04-1.22-1.37c-0.7-0.56-1.41-0.79-2.06-0.79c-1.47,0-2.44,1.38-2.44,2.86
				c0,1.45,0.94,2.85,2.4,2.85c1.45,0,2.49-1.14,3.11-2.15c0.68,0.86,0.83,1.06,1.23,1.37c0.7,0.56,1.41,0.79,2.06,0.79
				c1.47,0,2.42-1.38,2.42-2.86c0-1.45-0.93-2.85-2.38-2.85C225.93,147.91,224.88,149.05,224.26,150.07z"/>
			<path class="st6" d="M234.15,150.34c0-0.99-0.14-2.51-0.85-3.94c-0.75-1.55-1.83-2.37-1.96-2.37c-0.09,0-0.13,0.06-0.13,0.13
				c0,0.04,0,0.07,0.24,0.3c1.24,1.24,1.96,3.25,1.96,5.89c0,2.15-0.48,4.37-2.04,5.96c-0.16,0.16-0.16,0.18-0.16,0.21
				c0,0.08,0.04,0.13,0.13,0.13c0.13,0,1.25-0.85,2-2.45C234,152.79,234.15,151.39,234.15,150.34"/>
		</g>
	</g>
	<g>
		<g>
			<g>
				<path d="M8.76,32.12c0-1.83,0.02-3.97,0.06-5.13H8.8c-0.25,1.78-0.92,6.16-1.41,9.21H6.05C5.68,33.5,5,28.86,4.75,26.97H4.72
					c0.03,1.21,0.08,3.57,0.08,5.36v3.86H3.53V25.77h2.08c0.48,2.83,1,6.16,1.15,7.56h0.02c0.17-1.4,0.83-4.89,1.31-7.56h2.02v10.42
					H8.76V32.12z"/>
				<path d="M15.94,33.92c0,1.12,0,1.86,0.02,2.27h-1.33c-0.03-0.16-0.05-0.55-0.05-0.79c-0.27,0.71-0.8,0.92-1.47,0.92
					c-0.71,0-1.58-0.32-1.58-2.07v-6.07h1.4v5.71c0,0.83,0.23,1.18,0.76,1.18c0.54,0,0.87-0.33,0.87-1.58v-5.31h1.4V33.92z"/>
				<path d="M17.34,36.19V25.32h1.4v10.87H17.34z"/>
				<path d="M19.4,28.17h0.88v-1.94h1.39v1.94h1.06v1.23h-1.06v5.01c0,0.39,0.06,0.73,0.55,0.73c0.15,0,0.37-0.02,0.46-0.05v1.06
					c-0.26,0.12-0.64,0.14-0.93,0.14c-0.91,0-1.48-0.32-1.48-1.64V29.4H19.4V28.17z"/>
				<path d="M23.52,28.17h1.4v8.02h-1.4V28.17z M23.53,25.32h1.4v1.67h-1.4V25.32z"/>
				<path d="M26.33,30.89c0-1.31,0.01-1.95-0.02-2.72h1.33c0.02,0.18,0.04,0.8,0.04,1.28c0.31-1.04,1.01-1.38,1.73-1.39v1.72
					c-0.95,0-1.69,0.38-1.69,1.94v4.47h-1.4V30.89z"/>
				<path d="M31.34,32.53v1.23c0,0.69,0.15,1.37,0.83,1.37c0.69,0,0.79-0.59,0.79-1.25v-0.05h1.36v0.04c0,0.88-0.19,2.44-2.13,2.44
					c-1.89,0-2.22-1.2-2.22-2.82v-2.78c0-1.15,0.38-2.67,2.22-2.67c1.64,0,2.16,1.15,2.16,2.66c0,0.46,0,1.35,0,1.81H31.34z
					 M33.01,31.42v-0.9c0-0.74-0.15-1.28-0.82-1.28c-0.62,0-0.84,0.47-0.84,1.29v0.89H33.01z"/>
				<path d="M35.61,36.19V29.4H34.8v-1.23h0.81v-0.93c0-1.05,0.42-2,1.8-2c0.22,0,0.44,0.02,0.58,0.06v1.25
					c-0.13-0.02-0.21-0.03-0.32-0.03c-0.54,0-0.66,0.32-0.66,0.88v0.76h1v1.23h-1v6.79H35.61z"/>
				<path d="M39.84,32.53v1.23c0,0.69,0.15,1.37,0.83,1.37c0.69,0,0.79-0.59,0.79-1.25v-0.05h1.36v0.04c0,0.88-0.19,2.44-2.13,2.44
					c-1.89,0-2.22-1.2-2.22-2.82v-2.78c0-1.15,0.38-2.67,2.22-2.67c1.64,0,2.16,1.15,2.16,2.66c0,0.46,0,1.35,0,1.81H39.84z
					 M41.51,31.42v-0.9c0-0.74-0.15-1.28-0.82-1.28c-0.62,0-0.84,0.47-0.84,1.29v0.89H41.51z"/>
				<path d="M43.97,30.89c0-1.31,0.01-1.95-0.02-2.72h1.33c0.02,0.18,0.04,0.8,0.04,1.28c0.31-1.04,1.01-1.38,1.73-1.39v1.72
					c-0.95,0-1.69,0.38-1.69,1.94v4.47h-1.4V30.89z"/>
				<path d="M48.98,32.53v1.23c0,0.69,0.15,1.37,0.83,1.37c0.69,0,0.79-0.59,0.79-1.25v-0.05h1.36v0.04c0,0.88-0.19,2.44-2.13,2.44
					c-1.89,0-2.22-1.2-2.22-2.82v-2.78c0-1.15,0.38-2.67,2.22-2.67c1.64,0,2.16,1.15,2.16,2.66c0,0.46,0,1.35,0,1.81H48.98z
					 M50.66,31.42v-0.9c0-0.74-0.15-1.28-0.82-1.28c-0.62,0-0.84,0.47-0.84,1.29v0.89H50.66z"/>
				<path d="M53.12,30.63c0-1.62,0-2.08-0.02-2.46h1.33c0.03,0.18,0.05,0.48,0.05,0.76c0.23-0.52,0.68-0.88,1.47-0.88
					c0.93,0,1.62,0.55,1.62,2.05v6.09h-1.4v-5.82c0-0.75-0.25-1.06-0.75-1.06c-0.61,0-0.92,0.32-0.92,1.58v5.3h-1.4V30.63z"/>
				<path d="M62.98,33.58v0.11c0,1.42-0.36,2.62-2.13,2.62c-1.73,0-2.09-1.17-2.09-2.82v-2.9c0-1.33,0.46-2.55,2.16-2.55
					c1.83,0,2.06,1.33,2.06,2.35v0.31H61.6V30.4c0-0.66-0.11-1.17-0.71-1.17c-0.53,0-0.73,0.41-0.73,1.2v3.46
					c0,0.63,0.12,1.24,0.72,1.24c0.56,0,0.72-0.42,0.72-1.22v-0.33H62.98z"/>
				<path d="M65.13,32.53v1.23c0,0.69,0.15,1.37,0.83,1.37c0.69,0,0.79-0.59,0.79-1.25v-0.05h1.36v0.04c0,0.88-0.19,2.44-2.13,2.44
					c-1.89,0-2.22-1.2-2.22-2.82v-2.78c0-1.15,0.38-2.67,2.22-2.67c1.64,0,2.16,1.15,2.16,2.66c0,0.46,0,1.35,0,1.81H65.13z
					 M66.8,31.42v-0.9c0-0.74-0.15-1.28-0.82-1.28c-0.62,0-0.84,0.47-0.84,1.29v0.89H66.8z"/>
				<path d="M71.37,25.77h2.09c2.23,0,2.66,1.25,2.66,3.06v4.04c0,1.59-0.26,3.31-2.69,3.31h-2.05V25.77z M72.77,34.99h0.56
					c1.14,0,1.36-0.69,1.36-1.89v-4.39c0-1.06-0.19-1.73-1.36-1.73h-0.56V34.99z"/>
				<path d="M77.33,30.89c0-1.31,0.01-1.95-0.02-2.72h1.33c0.02,0.18,0.04,0.8,0.04,1.28c0.31-1.04,1.01-1.38,1.73-1.39v1.72
					c-0.95,0-1.69,0.38-1.69,1.94v4.47h-1.4V30.89z"/>
				<path d="M81.19,28.17h1.4v8.02h-1.4V28.17z M81.21,25.32h1.4v1.67h-1.4V25.32z"/>
				<path d="M84.87,28.17c0.25,1.48,0.81,4.79,1.01,6.45h0.02c0.14-1.57,0.8-4.88,1.06-6.45h1.4l-1.71,8.02h-1.58l-1.68-8.02H84.87z
					"/>
				<path d="M90.26,32.53v1.23c0,0.69,0.15,1.37,0.83,1.37c0.69,0,0.79-0.59,0.79-1.25v-0.05h1.36v0.04c0,0.88-0.19,2.44-2.13,2.44
					c-1.89,0-2.22-1.2-2.22-2.82v-2.78c0-1.15,0.38-2.67,2.22-2.67c1.64,0,2.16,1.15,2.16,2.66c0,0.46,0,1.35,0,1.81H90.26z
					 M91.93,31.42v-0.9c0-0.74-0.15-1.28-0.82-1.28c-0.62,0-0.84,0.47-0.84,1.29v0.89H91.93z"/>
				<path d="M94.39,30.63c0-1.62,0-2.08-0.02-2.46h1.33c0.03,0.18,0.05,0.48,0.05,0.76c0.23-0.52,0.68-0.88,1.47-0.88
					c0.93,0,1.62,0.55,1.62,2.05v6.09h-1.4v-5.82c0-0.75-0.25-1.06-0.75-1.06c-0.61,0-0.92,0.32-0.92,1.58v5.3h-1.4V30.63z"/>
				<path d="M103.24,33.18v0.63c0,0.86,0.28,1.33,0.94,1.33c0.68,0,0.89-0.57,0.89-1.44c0-1.16-0.25-1.56-1.36-2.43
					c-1.12-0.88-1.7-1.43-1.7-2.97c0-1.35,0.41-2.69,2.18-2.68c1.77,0,2.11,1.23,2.11,2.44v0.53h-1.39V28.1
					c0-0.78-0.14-1.27-0.75-1.27c-0.6,0-0.76,0.53-0.76,1.27c0,0.83,0.16,1.2,1.09,1.89c1.51,1.13,1.98,1.77,1.98,3.51
					c0,1.47-0.48,2.84-2.34,2.84c-1.82,0-2.3-1.17-2.3-2.55v-0.61H103.24z"/>
				<path d="M107.51,28.17h1.4v8.02h-1.4V28.17z M107.52,25.32h1.4v1.67h-1.4V25.32z"/>
				<path d="M110.32,30.49c0-1.54,0-1.95-0.02-2.32h1.33c0.04,0.24,0.04,0.45,0.05,0.72c0.26-0.54,0.73-0.85,1.39-0.85
					c0.64,0,1.08,0.27,1.27,0.89c0.27-0.46,0.68-0.89,1.51-0.89c0.83,0,1.55,0.4,1.55,1.96v6.18h-1.4v-5.92
					c0-0.59-0.14-0.96-0.66-0.96c-0.64,0-0.79,0.53-0.79,1.35v5.53h-1.41v-5.87c0-0.79-0.22-1.01-0.67-1.01
					c-0.64,0-0.78,0.54-0.78,1.37v5.51h-1.4V30.49z"/>
				<path d="M118.82,28.17h1.4v8.02h-1.4V28.17z M118.83,25.32h1.4v1.67h-1.4V25.32z"/>
				<path d="M121.63,36.19V25.32h1.4v10.87H121.63z"/>
				<path d="M128.43,34.65c0,0.52,0,1.26,0.03,1.54h-1.28c-0.04-0.17-0.08-0.49-0.09-0.61c-0.27,0.53-0.73,0.74-1.32,0.74
					c-1.19,0-1.66-1.08-1.66-2.3v-0.14c0-1.91,1.25-2.48,2.68-2.48c0.07,0,0.15,0,0.25,0v-1.13c0-0.67-0.09-1.07-0.64-1.07
					c-0.53,0-0.67,0.41-0.67,0.96v0.17h-1.38v-0.14c0-1.14,0.44-2.14,2.09-2.14c1.48,0,1.98,0.86,1.98,2.11V34.65z M127.07,32.47
					c-0.08,0-0.25,0-0.32,0c-0.8,0-1.31,0.32-1.31,1.38v0.13c0,0.63,0.21,1.1,0.76,1.1c0.62,0,0.86-0.46,0.86-1.59V32.47z"/>
				<path d="M129.85,30.89c0-1.31,0.01-1.95-0.02-2.72h1.33c0.02,0.18,0.04,0.8,0.04,1.28c0.31-1.04,1.01-1.38,1.73-1.39v1.72
					c-0.95,0-1.69,0.38-1.69,1.94v4.47h-1.4V30.89z"/>
				<path d="M133.72,28.17h1.4v8.02h-1.4V28.17z M133.73,25.32h1.4v1.67h-1.4V25.32z"/>
				<path d="M135.79,28.17h0.88v-1.94h1.39v1.94h1.06v1.23h-1.06v5.01c0,0.39,0.06,0.73,0.55,0.73c0.14,0,0.37-0.02,0.46-0.05v1.06
					c-0.26,0.12-0.64,0.14-0.93,0.14c-0.91,0-1.48-0.32-1.48-1.64V29.4h-0.88V28.17z"/>
				<path d="M140.78,28.17c0.47,2.75,0.92,5.33,0.98,6.32h0.04c0.15-1.34,0.56-3.35,1.06-6.32h1.4l-1.79,8.42
					c-0.49,2.28-1.26,2.4-2.16,2.4c-0.25,0-0.49-0.03-0.68-0.06l0.02-1.25c0.03,0.01,0.29,0.04,0.46,0.04
					c0.53,0,0.79-0.21,0.97-1.22l-1.79-8.32H140.78z"/>
				<path d="M148.52,31.44v4.75h-1.4V25.77h2.05c1.58,0,2.44,0.65,2.44,2.46v0.43c0,1.52-0.59,2-1.06,2.18
					c0.63,0.27,0.96,0.73,0.96,2.14c0,0.88-0.02,2.56,0.1,3.21h-1.35c-0.14-0.64-0.11-2.37-0.11-3.11c0-1.3-0.17-1.63-1.15-1.63
					H148.52z M148.52,30.28h0.5c0.91,0,1.2-0.43,1.2-1.55v-0.4c0-0.87-0.21-1.39-1.17-1.39h-0.53V30.28z"/>
				<path d="M153.89,32.53v1.23c0,0.69,0.15,1.37,0.83,1.37c0.69,0,0.79-0.59,0.79-1.25v-0.05h1.36v0.04c0,0.88-0.19,2.44-2.13,2.44
					c-1.89,0-2.22-1.2-2.22-2.82v-2.78c0-1.15,0.38-2.67,2.22-2.67c1.64,0,2.16,1.15,2.16,2.66c0,0.46,0,1.35,0,1.81H153.89z
					 M155.56,31.42v-0.9c0-0.74-0.15-1.28-0.82-1.28c-0.62,0-0.84,0.47-0.84,1.29v0.89H155.56z"/>
				<path d="M158.02,30.63c0-1.62,0-2.08-0.02-2.46h1.33c0.03,0.18,0.05,0.48,0.05,0.76c0.23-0.52,0.68-0.88,1.47-0.88
					c0.93,0,1.62,0.55,1.62,2.05v6.09h-1.4v-5.82c0-0.75-0.25-1.06-0.75-1.06c-0.61,0-0.92,0.32-0.92,1.58v5.3h-1.4V30.63z"/>
				<path d="M168.15,30.56v3.2c0,1.73-0.84,2.56-2.26,2.56c-1.45,0-2.22-0.84-2.22-2.54v-3.27c0-1.66,0.92-2.46,2.27-2.46
					C167.34,28.05,168.15,28.93,168.15,30.56z M165.07,30.49v3.33c0,0.74,0.24,1.25,0.85,1.25c0.57,0,0.83-0.41,0.83-1.27v-3.32
					c0-0.69-0.21-1.19-0.84-1.19C165.32,29.29,165.07,29.71,165.07,30.49z"/>
				<path d="M169.32,30.89c0-1.31,0.01-1.95-0.02-2.72h1.33c0.02,0.18,0.04,0.8,0.04,1.28c0.31-1.04,1.01-1.38,1.73-1.39v1.72
					c-0.95,0-1.69,0.38-1.69,1.94v4.47h-1.4V30.89z"/>
				<path d="M173.18,30.49c0-1.54,0-1.95-0.02-2.32h1.33c0.04,0.24,0.04,0.45,0.05,0.72c0.26-0.54,0.73-0.85,1.39-0.85
					c0.64,0,1.08,0.27,1.27,0.89c0.27-0.46,0.68-0.89,1.51-0.89c0.83,0,1.55,0.4,1.55,1.96v6.18h-1.4v-5.92
					c0-0.59-0.14-0.96-0.66-0.96c-0.64,0-0.79,0.53-0.79,1.35v5.53h-1.41v-5.87c0-0.79-0.22-1.01-0.67-1.01
					c-0.64,0-0.78,0.54-0.78,1.37v5.51h-1.4V30.49z"/>
				<path d="M185.7,34.65c0,0.52,0,1.26,0.03,1.54h-1.28c-0.04-0.17-0.08-0.49-0.09-0.61c-0.27,0.53-0.73,0.74-1.32,0.74
					c-1.19,0-1.66-1.08-1.66-2.3v-0.14c0-1.91,1.25-2.48,2.68-2.48c0.07,0,0.15,0,0.25,0v-1.13c0-0.67-0.09-1.07-0.64-1.07
					c-0.53,0-0.67,0.41-0.67,0.96v0.17h-1.38v-0.14c0-1.14,0.44-2.14,2.09-2.14c1.48,0,1.98,0.86,1.98,2.11V34.65z M184.34,32.47
					c-0.08,0-0.25,0-0.32,0c-0.8,0-1.31,0.32-1.31,1.38v0.13c0,0.63,0.21,1.1,0.76,1.1c0.62,0,0.86-0.46,0.86-1.59V32.47z"/>
				<path d="M187.12,36.19V25.32h1.4v10.87H187.12z"/>
				<path d="M189.91,28.17h1.4v8.02h-1.4V28.17z M189.92,25.32h1.4v1.67h-1.4V25.32z"/>
				<path d="M192.13,35.24l2.56-5.79h-2.33v-1.27h3.87v0.98l-2.48,5.76h2.51l-0.12,1.27h-4V35.24z"/>
				<path d="M201.1,34.65c0,0.52,0,1.26,0.03,1.54h-1.28c-0.04-0.17-0.08-0.49-0.09-0.61c-0.27,0.53-0.73,0.74-1.32,0.74
					c-1.19,0-1.66-1.08-1.66-2.3v-0.14c0-1.91,1.25-2.48,2.68-2.48c0.07,0,0.15,0,0.25,0v-1.13c0-0.67-0.09-1.07-0.64-1.07
					c-0.53,0-0.67,0.41-0.67,0.96v0.17h-1.38v-0.14c0-1.14,0.44-2.14,2.09-2.14c1.48,0,1.98,0.86,1.98,2.11V34.65z M199.73,32.47
					c-0.08,0-0.25,0-0.32,0c-0.8,0-1.31,0.32-1.31,1.38v0.13c0,0.63,0.21,1.1,0.76,1.1c0.62,0,0.86-0.46,0.86-1.59V32.47z"/>
				<path d="M201.78,28.17h0.88v-1.94h1.39v1.94h1.06v1.23h-1.06v5.01c0,0.39,0.06,0.73,0.55,0.73c0.14,0,0.37-0.02,0.46-0.05v1.06
					c-0.26,0.12-0.64,0.14-0.93,0.14c-0.91,0-1.48-0.32-1.48-1.64V29.4h-0.88V28.17z"/>
				<path d="M205.9,28.17h1.4v8.02h-1.4V28.17z M205.91,25.32h1.4v1.67h-1.4V25.32z"/>
				<path d="M212.96,30.56v3.2c0,1.73-0.84,2.56-2.26,2.56c-1.45,0-2.22-0.84-2.22-2.54v-3.27c0-1.66,0.92-2.46,2.27-2.46
					C212.16,28.05,212.96,28.93,212.96,30.56z M209.88,30.49v3.33c0,0.74,0.24,1.25,0.85,1.25c0.57,0,0.83-0.41,0.83-1.27v-3.32
					c0-0.69-0.21-1.19-0.84-1.19C210.14,29.29,209.88,29.71,209.88,30.49z"/>
				<path d="M214.13,30.63c0-1.62,0-2.08-0.02-2.46h1.33c0.03,0.18,0.05,0.48,0.05,0.76c0.23-0.52,0.68-0.88,1.47-0.88
					c0.93,0,1.62,0.55,1.62,2.05v6.09h-1.4v-5.82c0-0.75-0.25-1.06-0.75-1.06c-0.61,0-0.92,0.32-0.92,1.58v5.3h-1.4V30.63z"/>
				<path d="M226.59,36.19h-1.1c-0.04-0.18-0.07-0.6-0.08-0.83c-0.28,0.73-0.88,0.98-1.55,0.98c-1.49,0-1.98-1.09-1.98-2.81V28.5
					c0-1.7,0.67-2.87,2.37-2.87c2.03,0,2.3,1.47,2.3,2.68v0.31h-1.4v-0.36c0-0.62-0.08-1.35-0.91-1.35c-0.64,0-0.94,0.43-0.94,1.41
					v5.35c0,0.92,0.25,1.44,0.91,1.44c0.81,0,0.97-0.71,0.97-1.89v-1.58h-1.01v-1.21h2.42V36.19z"/>
				<path d="M227.91,30.89c0-1.31,0.01-1.95-0.02-2.72h1.33c0.02,0.18,0.04,0.8,0.04,1.28c0.31-1.04,1.01-1.38,1.73-1.39v1.72
					c-0.95,0-1.69,0.38-1.69,1.94v4.47h-1.4V30.89z"/>
				<path d="M236.04,30.56v3.2c0,1.73-0.84,2.56-2.26,2.56c-1.45,0-2.22-0.84-2.22-2.54v-3.27c0-1.66,0.92-2.46,2.27-2.46
					C235.23,28.05,236.04,28.93,236.04,30.56z M232.96,30.49v3.33c0,0.74,0.24,1.25,0.85,1.25c0.57,0,0.83-0.41,0.83-1.27v-3.32
					c0-0.69-0.21-1.19-0.84-1.19C233.21,29.29,232.96,29.71,232.96,30.49z"/>
				<path d="M241.62,33.92c0,1.12,0,1.86,0.02,2.27h-1.33c-0.03-0.16-0.05-0.55-0.05-0.79c-0.27,0.71-0.8,0.92-1.47,0.92
					c-0.71,0-1.58-0.32-1.58-2.07v-6.07h1.4v5.71c0,0.83,0.23,1.18,0.76,1.18c0.54,0,0.87-0.33,0.87-1.58v-5.31h1.4V33.92z"/>
				<path d="M244.42,35.59v3.3h-1.4v-8.41c0-1.09,0-1.81-0.02-2.3h1.33c0.03,0.15,0.05,0.5,0.05,0.82c0.22-0.52,0.66-0.94,1.46-0.94
					c1.11,0,1.65,0.77,1.65,2.34v3.33c0,1.82-0.64,2.59-1.8,2.59C244.97,36.31,244.61,35.95,244.42,35.59z M246.1,33.74v-3.25
					c0-0.83-0.28-1.18-0.77-1.18c-0.65,0-0.92,0.48-0.92,1.45v2.71c0,0.87,0.14,1.58,0.85,1.58C245.9,35.05,246.1,34.56,246.1,33.74
					z"/>
			</g>
		</g>
	</g>
</g>
</svg>
